<svg width="20" height="20" viewBox="0 0 20 20" fill="none" xmlns="http://www.w3.org/2000/svg">
<path d="M6.65749 2.91634C6.54847 3.02797 6.48743 3.17781 6.48743 3.33384C6.48743 3.48988 6.54847 3.63972 6.65749 3.75134L12.7487 10.0001L6.65749 16.2476C6.54847 16.3592 6.48743 16.5091 6.48743 16.6651C6.48743 16.8211 6.54847 16.971 6.65749 17.0826C6.71049 17.137 6.77385 17.1803 6.84384 17.2098C6.91383 17.2394 6.98903 17.2546 7.06499 17.2546C7.14096 17.2546 7.21616 17.2394 7.28615 17.2098C7.35614 17.1803 7.4195 17.137 7.47249 17.0826L13.95 10.4363C14.0638 10.3196 14.1274 10.1631 14.1274 10.0001C14.1274 9.8371 14.0638 9.68056 13.95 9.56384L7.47249 2.91759C7.4195 2.86316 7.35614 2.8199 7.28615 2.79036C7.21616 2.76082 7.14096 2.74561 7.06499 2.74561C6.98903 2.74561 6.91383 2.76082 6.84384 2.79036C6.77385 2.8199 6.71049 2.86316 6.65749 2.91759V2.91634Z" fill="white"/>
</svg>
