<svg width="185" height="158" viewBox="0 0 185 158" fill="none" xmlns="http://www.w3.org/2000/svg">
<rect width="5" height="5" rx="2.5" fill="#F93943"/>
<rect x="35" width="5" height="5" rx="2.5" fill="#F93943"/>
<rect x="70" width="5" height="5" rx="2.5" fill="#F93943"/>
<rect x="105" width="5" height="5" rx="2.5" fill="#F93943"/>
<rect x="140" width="5" height="5" rx="2.5" fill="#F93943"/>
<rect x="175" width="5" height="5" rx="2.5" fill="#F93943"/>
<rect y="35" width="5" height="5" rx="2.5" fill="#F93943"/>
<rect x="35" y="35" width="5" height="5" rx="2.5" fill="#F93943"/>
<rect x="70" y="35" width="5" height="5" rx="2.5" fill="#F93943"/>
<rect x="105" y="35" width="5" height="5" rx="2.5" fill="#F93943"/>
<rect x="140" y="35" width="5" height="5" rx="2.5" fill="#F93943"/>
<rect x="175" y="35" width="5" height="5" rx="2.5" fill="#F93943"/>
<rect y="70" width="5" height="5" rx="2.5" fill="#F93943"/>
<rect y="105" width="5" height="5" rx="2.5" fill="#F93943"/>
<rect y="140" width="5" height="5" rx="2.5" fill="#F93943"/>
<rect x="35" y="70" width="5" height="5" rx="2.5" fill="#F93943"/>
<rect x="35" y="105" width="5" height="5" rx="2.5" fill="#F93943"/>
<rect x="35" y="140" width="5" height="5" rx="2.5" fill="#F93943"/>
<rect x="70" y="70" width="5" height="5" rx="2.5" fill="#F93943"/>
<rect x="70" y="105" width="5" height="5" rx="2.5" fill="#F93943"/>
<rect x="70" y="140" width="5" height="5" rx="2.5" fill="#F93943"/>
<rect x="105" y="70" width="5" height="5" rx="2.5" fill="#F93943"/>
<rect x="105" y="105" width="5" height="5" rx="2.5" fill="#F93943"/>
<rect x="105" y="140" width="5" height="5" rx="2.5" fill="#F93943"/>
<rect x="140" y="70" width="5" height="5" rx="2.5" fill="#F93943"/>
<rect x="140" y="105" width="5" height="5" rx="2.5" fill="#F93943"/>
<rect x="140" y="140" width="5" height="5" rx="2.5" fill="#F93943"/>
<rect x="175" y="70" width="5" height="5" rx="2.5" fill="#F93943"/>
<rect x="175" y="105" width="5" height="5" rx="2.5" fill="#F93943"/>
<rect x="175" y="140" width="5" height="5" rx="2.5" fill="#F93943"/>
</svg>
